{
	"asset":{
		"generator":"Khronos glTF Blender I/O v3.5.30",
		"version":"2.0"
	},
	"scene":0,
	"scenes":[
		{
			"name":"Scene",
			"nodes":[
				0
			]
		}
	],
	"nodes":[
		{
			"mesh":0,
			"name":"BME280",
			"rotation":[
				0,
				-0.7071068286895752,
				0,
				0.7071068286895752
			],
			"scale":[
				1,
				0.5,
				1
			]
		}
	],
	"materials":[
		{
			"doubleSided":true,
			"name":"Material.001",
			"pbrMetallicRoughness":{
				"metallicFactor":0,
				"roughnessFactor":0.5
			}
		}
	],
	"meshes":[
		{
			"name":"ImageToStl.com_gy-bme280 2",
			"primitives":[
				{
					"attributes":{
						"POSITION":0,
						"NORMAL":1
					},
					"indices":2,
					"material":0
				}
			]
		}
	],
	"accessors":[
		{
			"bufferView":0,
			"componentType":5126,
			"count":13052,
			"max":[
				5.349999904632568,
				2.530100107192993,
				0
			],
			"min":[
				-5.349999904632568,
				-1.100000023841858,
				-13.5
			],
			"type":"VEC3"
		},
		{
			"bufferView":1,
			"componentType":5126,
			"count":13052,
			"type":"VEC3"
		},
		{
			"bufferView":2,
			"componentType":5123,
			"count":21246,
			"type":"SCALAR"
		}
	],
	"bufferViews":[
		{
			"buffer":0,
			"byteLength":156624,
			"byteOffset":0,
			"target":34962
		},
		{
			"buffer":0,
			"byteLength":156624,
			"byteOffset":156624,
			"target":34962
		},
		{
			"buffer":0,
			"byteLength":42492,
			"byteOffset":313248,
			"target":34963
		}
	],
	"buffers":[
		{
			"byteLength":355740,
			"uri":"data:application/octet-stream;base64,"
		}
	]
}
