{
	"asset":{
		"generator":"Khronos glTF Blender I/O v3.5.30",
		"version":"2.0"
	},
	"scene":0,
	"scenes":[
		{
			"name":"Scene",
			"nodes":[
				0
			]
		}
	],
	"nodes":[
		{
			"mesh":0,
			"name":"ImageToStl.com_gy-bme280_ImageToStl.com_gy-bme280.001",
			"rotation":[
				0.70710688829422,
				0,
				0,
				0.7071066498756409
			]
		}
	],
	"materials":[
		{
			"doubleSided":true,
			"name":"material",
			"pbrMetallicRoughness":{
				"baseColorFactor":[
					0.800000011920929,
					0.800000011920929,
					0.800000011920929,
					1
				],
				"metallicFactor":0,
				"roughnessFactor":0
			}
		}
	],
	"meshes":[
		{
			"name":"ImageToStl.com_gy-bme280_ImageToStl.com_gy-bme280.001",
			"primitives":[
				{
					"attributes":{
						"POSITION":0,
						"NORMAL":1
					},
					"indices":2,
					"material":0
				}
			]
		}
	],
	"accessors":[
		{
			"bufferView":0,
			"componentType":5126,
			"count":15857,
			"max":[
				13.520512580871582,
				5.349999904632568,
				1.100000023841858
			],
			"min":[
				0,
				-5.349999904632568,
				-2.5301010608673096
			],
			"type":"VEC3"
		},
		{
			"bufferView":1,
			"componentType":5126,
			"count":15857,
			"type":"VEC3"
		},
		{
			"bufferView":2,
			"componentType":5123,
			"count":26190,
			"type":"SCALAR"
		}
	],
	"bufferViews":[
		{
			"buffer":0,
			"byteLength":190284,
			"byteOffset":0,
			"target":34962
		},
		{
			"buffer":0,
			"byteLength":190284,
			"byteOffset":190284,
			"target":34962
		},
		{
			"buffer":0,
			"byteLength":52380,
			"byteOffset":380568,
			"target":34963
		}
	],
	"buffers":[
		{
			"byteLength":432948,
			"uri":"data:application/octet-stream;base64,"
		}
	]
}
