{
	"asset":{
		"generator":"Khronos glTF Blender I/O v3.5.30",
		"version":"2.0"
	},
	"scene":0,
	"scenes":[
		{
			"name":"Scene",
			"nodes":[
				0
			]
		}
	],
	"nodes":[
		{
			"mesh":0,
			"name":"HMC5883L",
			"rotation":[
				0,
				0.7071068286895752,
				0,
				0.7071068286895752
			],
			"scale":[
				1,
				0.5,
				1
			],
			"translation":[
				6.75,
				0.699999988079071,
				0
			]
		}
	],
	"materials":[
		{
			"doubleSided":true,
			"name":"Material.003",
			"pbrMetallicRoughness":{
				"metallicFactor":0,
				"roughnessFactor":0.5
			}
		}
	],
	"meshes":[
		{
			"name":"ImageToStl.com_gy-271 hmc5883l triple 3 axis digital compass",
			"primitives":[
				{
					"attributes":{
						"POSITION":0,
						"NORMAL":1
					},
					"indices":2,
					"material":0
				}
			]
		}
	],
	"accessors":[
		{
			"bufferView":0,
			"componentType":5126,
			"count":1322,
			"max":[
				7.25,
				1.600000023841858,
				6.75
			],
			"min":[
				-7.25,
				-1.2999999523162842,
				-6.75
			],
			"type":"VEC3"
		},
		{
			"bufferView":1,
			"componentType":5126,
			"count":1322,
			"type":"VEC3"
		},
		{
			"bufferView":2,
			"componentType":5123,
			"count":2196,
			"type":"SCALAR"
		}
	],
	"bufferViews":[
		{
			"buffer":0,
			"byteLength":15864,
			"byteOffset":0,
			"target":34962
		},
		{
			"buffer":0,
			"byteLength":15864,
			"byteOffset":15864,
			"target":34962
		},
		{
			"buffer":0,
			"byteLength":4392,
			"byteOffset":31728,
			"target":34963
		}
	],
	"buffers":[
		{
			"byteLength":36120,
			"uri":"data:application/octet-stream;base64,"
		}
	]
}
