{
	"asset":{
		"generator":"Khronos glTF Blender I/O v3.5.30",
		"version":"2.0"
	},
	"scene":0,
	"scenes":[
		{
			"name":"Scene",
			"nodes":[
				0
			]
		}
	],
	"nodes":[
		{
			"mesh":0,
			"name":"Plane_0",
			"rotation":[
				-1,
				0,
				0,
				1.910685676922942e-15
			],
			"scale":[
				3.049999952316284,
				3.049999952316284,
				3.049999952316284
			],
			"translation":[
				7.5,
				0,
				0
			]
		}
	],
	"materials":[
		{
			"doubleSided":true,
			"name":"material",
			"pbrMetallicRoughness":{
				"metallicFactor":0,
				"roughnessFactor":0
			}
		}
	],
	"meshes":[
		{
			"name":"Plane_0.001",
			"primitives":[
				{
					"attributes":{
						"POSITION":0,
						"TEXCOORD_0":1,
						"NORMAL":2
					},
					"indices":3,
					"material":0
				}
			]
		}
	],
	"accessors":[
		{
			"bufferView":0,
			"componentType":5126,
			"count":1268,
			"max":[
				2.4554600715637207,
				0,
				3.1568799018859863
			],
			"min":[
				-2.4554600715637207,
				-0.3629150092601776,
				-3.1568799018859863
			],
			"type":"VEC3"
		},
		{
			"bufferView":1,
			"componentType":5126,
			"count":1268,
			"type":"VEC2"
		},
		{
			"bufferView":2,
			"componentType":5126,
			"count":1268,
			"type":"VEC3"
		},
		{
			"bufferView":3,
			"componentType":5123,
			"count":3198,
			"type":"SCALAR"
		}
	],
	"bufferViews":[
		{
			"buffer":0,
			"byteLength":15216,
			"byteOffset":0,
			"target":34962
		},
		{
			"buffer":0,
			"byteLength":10144,
			"byteOffset":15216,
			"target":34962
		},
		{
			"buffer":0,
			"byteLength":15216,
			"byteOffset":25360,
			"target":34962
		},
		{
			"buffer":0,
			"byteLength":6396,
			"byteOffset":40576,
			"target":34963
		}
	],
	"buffers":[
		{
			"byteLength":46972,
			"uri":"data:application/octet-stream;base64,"
		}
	]
}
